<?xml version="1.0" encoding="UTF-8"?>
<svg xmlns="http://www.w3.org/2000/svg" xmlns:xlink="http://www.w3.org/1999/xlink" width="32pt" height="29pt" viewBox="0 0 32 29" version="1.1">
<g id="surface1">
<path style=" stroke:none;fill-rule:nonzero;fill:rgb(0%,0%,0%);fill-opacity:1;" d="M 25.332031 25.375 C 26.070312 25.375 26.667969 24.832031 26.667969 24.167969 L 26.667969 1.207031 C 26.667969 0.542969 26.070312 0 25.332031 0 L 6.667969 0 C 5.929688 0 5.332031 0.542969 5.332031 1.207031 L 5.332031 24.167969 C 5.332031 24.832031 5.929688 25.375 6.667969 25.375 L 12 25.375 L 12 26.582031 L 9.332031 26.582031 C 8.597656 26.582031 8 27.125 8 27.792969 C 8 28.457031 8.597656 29 9.332031 29 L 22.667969 29 C 23.402344 29 24 28.457031 24 27.792969 C 24 27.125 23.402344 26.582031 22.667969 26.582031 L 20 26.582031 L 20 25.375 Z M 8 2.417969 L 24 2.417969 L 24 22.957031 L 8 22.957031 Z M 17.332031 26.582031 L 14.667969 26.582031 L 14.667969 25.375 L 17.332031 25.375 Z M 17.332031 26.582031 "/>
<path style=" stroke:none;fill-rule:nonzero;fill:rgb(0%,0%,0%);fill-opacity:1;" d="M 16 7.25 C 17.472656 7.25 18.667969 8.332031 18.667969 9.667969 C 18.667969 11 17.472656 12.082031 16 12.082031 C 15.265625 12.082031 14.667969 12.625 14.667969 13.292969 C 14.667969 13.957031 15.265625 14.5 16 14.5 C 18.941406 14.5 21.332031 12.332031 21.332031 9.667969 C 21.332031 7 18.941406 4.832031 16 4.832031 C 13.058594 4.832031 10.667969 7 10.667969 9.667969 C 10.667969 10.332031 11.265625 10.875 12 10.875 C 12.734375 10.875 13.332031 10.332031 13.332031 9.667969 C 13.332031 8.332031 14.527344 7.25 16 7.25 Z M 16 7.25 "/>
<path style=" stroke:none;fill-rule:nonzero;fill:rgb(0%,0%,0%);fill-opacity:1;" d="M 16 18.125 C 14.898438 18.125 14 18.9375 14 19.9375 C 14 20.9375 14.898438 21.75 16 21.75 C 17.101562 21.75 18 20.9375 18 19.9375 C 18 18.9375 17.101562 18.125 16 18.125 Z M 16 18.125 "/>
</g>
</svg>
