<?xml version="1.0" encoding="UTF-8"?>
<svg xmlns="http://www.w3.org/2000/svg" xmlns:xlink="http://www.w3.org/1999/xlink" width="32pt" height="29pt" viewBox="0 0 32 29" version="1.1">
<g id="surface1">
<path style=" stroke:none;fill-rule:nonzero;fill:rgb(0%,0%,0%);fill-opacity:1;" d="M 30.667969 0 L 1.332031 0 C 0.597656 0 0 0.542969 0 1.207031 L 0 27.792969 C 0 28.457031 0.597656 29 1.332031 29 L 30.667969 29 C 31.402344 29 32 28.457031 32 27.792969 L 32 1.207031 C 32 0.542969 31.402344 0 30.667969 0 Z M 29.332031 26.582031 L 2.667969 26.582031 L 2.667969 2.417969 L 29.332031 2.417969 Z M 29.332031 26.582031 "/>
<path style=" stroke:none;fill-rule:nonzero;fill:rgb(0%,0%,0%);fill-opacity:1;" d="M 4.667969 14.5 C 4.667969 15.167969 5.265625 15.707031 6 15.707031 C 6.734375 15.707031 7.332031 15.167969 7.332031 14.5 C 7.332031 12.398438 8.234375 10.425781 9.867188 8.945312 C 13.25 5.886719 18.75 5.886719 22.128906 8.945312 C 25.503906 12.007812 25.503906 16.992188 22.128906 20.054688 C 20.496094 21.539062 18.316406 22.355469 16 22.355469 C 15.265625 22.355469 14.667969 22.894531 14.667969 23.5625 C 14.667969 24.230469 15.265625 24.769531 16 24.769531 C 19.03125 24.769531 21.875 23.703125 24.015625 21.765625 C 28.429688 17.757812 28.429688 11.242188 24.015625 7.234375 C 19.59375 3.234375 12.402344 3.234375 7.984375 7.234375 C 5.84375 9.171875 4.667969 11.753906 4.667969 14.5 Z M 4.667969 14.5 "/>
<path style=" stroke:none;fill-rule:nonzero;fill:rgb(0%,0%,0%);fill-opacity:1;" d="M 5.332031 6.042969 L 6.667969 6.042969 C 7.402344 6.042969 8 5.5 8 4.832031 C 8 4.167969 7.402344 3.625 6.667969 3.625 L 5.332031 3.625 C 4.597656 3.625 4 4.167969 4 4.832031 C 4 5.5 4.597656 6.042969 5.332031 6.042969 Z M 5.332031 6.042969 "/>
<path style=" stroke:none;fill-rule:nonzero;fill:rgb(0%,0%,0%);fill-opacity:1;" d="M 5.332031 25.375 L 6.667969 25.375 C 7.402344 25.375 8 24.832031 8 24.167969 C 8 23.5 7.402344 22.957031 6.667969 22.957031 L 5.332031 22.957031 C 4.597656 22.957031 4 23.5 4 24.167969 C 4 24.832031 4.597656 25.375 5.332031 25.375 Z M 5.332031 25.375 "/>
<path style=" stroke:none;fill-rule:nonzero;fill:rgb(0%,0%,0%);fill-opacity:1;" d="M 26.667969 22.957031 L 25.332031 22.957031 C 24.597656 22.957031 24 23.5 24 24.167969 C 24 24.832031 24.597656 25.375 25.332031 25.375 L 26.667969 25.375 C 27.402344 25.375 28 24.832031 28 24.167969 C 28 23.5 27.402344 22.957031 26.667969 22.957031 Z M 26.667969 22.957031 "/>
<path style=" stroke:none;fill-rule:nonzero;fill:rgb(0%,0%,0%);fill-opacity:1;" d="M 25.332031 6.042969 L 26.667969 6.042969 C 27.402344 6.042969 28 5.5 28 4.832031 C 28 4.167969 27.402344 3.625 26.667969 3.625 L 25.332031 3.625 C 24.597656 3.625 24 4.167969 24 4.832031 C 24 5.5 24.597656 6.042969 25.332031 6.042969 Z M 25.332031 6.042969 "/>
<path style=" stroke:none;fill-rule:nonzero;fill:rgb(0%,0%,0%);fill-opacity:1;" d="M 19.058594 18.980469 C 19.316406 19.214844 19.660156 19.332031 20 19.332031 C 20.339844 19.332031 20.683594 19.214844 20.941406 18.980469 C 21.464844 18.507812 21.464844 17.742188 20.941406 17.269531 L 17.886719 14.5 L 20.941406 11.730469 C 21.464844 11.257812 21.464844 10.492188 20.941406 10.019531 C 20.421875 9.550781 19.578125 9.550781 19.058594 10.019531 L 16 12.789062 L 12.941406 10.019531 C 12.421875 9.550781 11.578125 9.550781 11.058594 10.019531 C 10.535156 10.492188 10.535156 11.257812 11.058594 11.730469 L 14.113281 14.5 L 11.058594 17.269531 C 10.535156 17.742188 10.535156 18.507812 11.058594 18.980469 C 11.578125 19.449219 12.421875 19.449219 12.941406 18.980469 L 16 16.207031 Z M 19.058594 18.980469 "/>
</g>
</svg>
