<?xml version="1.0" encoding="UTF-8"?>
<svg xmlns="http://www.w3.org/2000/svg" xmlns:xlink="http://www.w3.org/1999/xlink" width="32pt" height="29pt" viewBox="0 0 32 29" version="1.1">
<g id="surface1">
<path style=" stroke:none;fill-rule:nonzero;fill:rgb(0%,0%,0%);fill-opacity:1;" d="M 29.332031 27.792969 L 29.332031 1.207031 C 29.332031 0.542969 28.734375 0 28 0 L 4 0 C 3.265625 0 2.667969 0.542969 2.667969 1.207031 L 2.667969 27.792969 C 2.667969 28.457031 3.265625 29 4 29 L 28 29 C 28.734375 29 29.332031 28.457031 29.332031 27.792969 Z M 10.667969 2.417969 L 12.667969 2.417969 L 12.667969 3.625 C 12.667969 4.292969 13.265625 4.832031 14 4.832031 C 14.734375 4.832031 15.332031 4.292969 15.332031 3.625 L 15.332031 2.417969 L 16.667969 2.417969 L 16.667969 3.625 C 16.667969 4.292969 17.265625 4.832031 18 4.832031 C 18.734375 4.832031 19.332031 4.292969 19.332031 3.625 L 19.332031 2.417969 L 21.332031 2.417969 L 21.332031 4.332031 L 18.78125 6.644531 L 10.667969 6.644531 Z M 26.667969 26.582031 L 22.667969 26.582031 L 22.667969 19.332031 C 22.667969 18.667969 22.070312 18.125 21.332031 18.125 L 10.667969 18.125 C 9.929688 18.125 9.332031 18.667969 9.332031 19.332031 L 9.332031 22.957031 C 9.332031 23.625 9.929688 24.167969 10.667969 24.167969 C 11.402344 24.167969 12 23.625 12 22.957031 L 12 20.542969 L 20 20.542969 L 20 26.582031 L 5.332031 26.582031 L 5.332031 2.417969 L 8 2.417969 L 8 7.855469 C 8 8.519531 8.597656 9.0625 9.332031 9.0625 L 19.332031 9.0625 C 19.6875 9.0625 20.027344 8.933594 20.277344 8.707031 L 23.609375 5.6875 C 23.859375 5.460938 24 5.152344 24 4.832031 L 24 2.417969 L 26.667969 2.417969 Z M 26.667969 26.582031 "/>
</g>
</svg>
