<?xml version="1.0" encoding="UTF-8"?>
<svg xmlns="http://www.w3.org/2000/svg" xmlns:xlink="http://www.w3.org/1999/xlink" width="32pt" height="29pt" viewBox="0 0 32 29" version="1.1">
<g id="surface1">
<path style=" stroke:none;fill-rule:nonzero;fill:rgb(0%,0%,0%);fill-opacity:1;" d="M 4 1.207031 L 4 27.792969 C 4 28.457031 4.597656 29 5.332031 29 L 26.667969 29 C 27.402344 29 28 28.457031 28 27.792969 L 28 1.207031 C 28 0.542969 27.402344 0 26.667969 0 L 5.332031 0 C 4.597656 0 4 0.542969 4 1.207031 Z M 6.667969 2.417969 L 25.332031 2.417969 L 25.332031 26.582031 L 6.667969 26.582031 Z M 6.667969 2.417969 "/>
<path style=" stroke:none;fill-rule:nonzero;fill:rgb(0%,0%,0%);fill-opacity:1;" d="M 21.332031 3.625 L 10.667969 3.625 C 9.929688 3.625 9.332031 4.167969 9.332031 4.835938 L 9.332031 8.460938 C 9.332031 9.125 9.929688 9.667969 10.667969 9.667969 L 21.332031 9.667969 C 22.070312 9.667969 22.667969 9.125 22.667969 8.460938 L 22.667969 4.832031 C 22.667969 4.167969 22.070312 3.625 21.332031 3.625 Z M 20 7.25 L 12 7.25 L 12 6.042969 L 20 6.042969 Z M 20 7.25 "/>
<path style=" stroke:none;fill-rule:nonzero;fill:rgb(0%,0%,0%);fill-opacity:1;" d="M 12 22.957031 L 10.667969 22.957031 C 9.929688 22.957031 9.332031 23.5 9.332031 24.167969 C 9.332031 24.832031 9.929688 25.375 10.667969 25.375 L 12 25.375 C 12.734375 25.375 13.332031 24.832031 13.332031 24.167969 C 13.332031 23.5 12.734375 22.957031 12 22.957031 Z M 12 22.957031 "/>
<path style=" stroke:none;fill-rule:nonzero;fill:rgb(0%,0%,0%);fill-opacity:1;" d="M 21.332031 22.957031 L 17.332031 22.957031 C 16.597656 22.957031 16 23.5 16 24.167969 C 16 24.832031 16.597656 25.375 17.332031 25.375 L 21.332031 25.375 C 22.070312 25.375 22.667969 24.832031 22.667969 24.167969 C 22.667969 23.5 22.070312 22.957031 21.332031 22.957031 Z M 21.332031 22.957031 "/>
<path style=" stroke:none;fill-rule:nonzero;fill:rgb(0%,0%,0%);fill-opacity:1;" d="M 18 19.9375 C 18 18.9375 17.101562 18.125 16 18.125 C 14.898438 18.125 14 18.9375 14 19.9375 C 14 20.9375 14.898438 21.75 16 21.75 C 17.101562 21.75 18 20.9375 18 19.9375 Z M 18 19.9375 "/>
<path style=" stroke:none;fill-rule:nonzero;fill:rgb(0%,0%,0%);fill-opacity:1;" d="M 21.332031 14.5 L 10.667969 14.5 C 9.929688 14.5 9.332031 15.042969 9.332031 15.707031 C 9.332031 16.375 9.929688 16.917969 10.667969 16.917969 L 21.332031 16.917969 C 22.070312 16.917969 22.667969 16.375 22.667969 15.707031 C 22.667969 15.042969 22.070312 14.5 21.332031 14.5 Z M 21.332031 14.5 "/>
</g>
</svg>
