<?xml version="1.0" encoding="UTF-8"?>
<svg xmlns="http://www.w3.org/2000/svg" xmlns:xlink="http://www.w3.org/1999/xlink" width="32pt" height="29pt" viewBox="0 0 32 29" version="1.1">
<g id="surface1">
<path style=" stroke:none;fill-rule:nonzero;fill:rgb(0%,0%,0%);fill-opacity:1;" d="M 30.667969 10.875 C 31.402344 10.875 32 10.332031 32 9.667969 C 32 9 31.402344 8.457031 30.667969 8.457031 L 28 8.457031 L 28 4.832031 C 28 4.167969 27.402344 3.625 26.667969 3.625 L 22.667969 3.625 L 22.667969 1.207031 C 22.667969 0.542969 22.070312 0 21.332031 0 C 20.597656 0 20 0.542969 20 1.207031 L 20 3.625 L 17.332031 3.625 L 17.332031 2.417969 C 17.332031 1.75 16.734375 1.207031 16 1.207031 C 15.265625 1.207031 14.667969 1.75 14.667969 2.417969 L 14.667969 3.625 L 12 3.625 L 12 1.207031 C 12 0.542969 11.402344 0 10.667969 0 C 9.929688 0 9.332031 0.542969 9.332031 1.207031 L 9.332031 3.625 L 5.332031 3.625 C 4.597656 3.625 4 4.167969 4 4.832031 L 4 8.457031 L 1.332031 8.457031 C 0.597656 8.457031 0 9 0 9.667969 C 0 10.332031 0.597656 10.875 1.332031 10.875 L 4 10.875 L 4 13.292969 L 2.667969 13.292969 C 1.929688 13.292969 1.332031 13.832031 1.332031 14.5 C 1.332031 15.167969 1.929688 15.707031 2.667969 15.707031 L 4 15.707031 L 4 18.125 L 1.332031 18.125 C 0.597656 18.125 0 18.667969 0 19.332031 C 0 20 0.597656 20.542969 1.332031 20.542969 L 4 20.542969 L 4 24.167969 C 4 24.832031 4.597656 25.375 5.332031 25.375 L 9.332031 25.375 L 9.332031 27.792969 C 9.332031 28.457031 9.929688 29 10.667969 29 C 11.402344 29 12 28.457031 12 27.792969 L 12 25.375 L 14.667969 25.375 L 14.667969 26.582031 C 14.667969 27.25 15.265625 27.792969 16 27.792969 C 16.734375 27.792969 17.332031 27.25 17.332031 26.582031 L 17.332031 25.375 L 20 25.375 L 20 27.792969 C 20 28.457031 20.597656 29 21.332031 29 C 22.070312 29 22.667969 28.457031 22.667969 27.792969 L 22.667969 25.375 L 26.667969 25.375 C 27.402344 25.375 28 24.832031 28 24.167969 L 28 20.542969 L 30.667969 20.542969 C 31.402344 20.542969 32 20 32 19.332031 C 32 18.667969 31.402344 18.125 30.667969 18.125 L 28 18.125 L 28 15.707031 L 29.332031 15.707031 C 30.070312 15.707031 30.667969 15.167969 30.667969 14.5 C 30.667969 13.832031 30.070312 13.292969 29.332031 13.292969 L 28 13.292969 L 28 10.875 Z M 25.332031 22.957031 L 6.667969 22.957031 L 6.667969 6.042969 L 25.332031 6.042969 Z M 25.332031 22.957031 "/>
<path style=" stroke:none;fill-rule:nonzero;fill:rgb(0%,0%,0%);fill-opacity:1;" d="M 16.667969 12.6875 L 15.332031 12.6875 C 14.597656 12.6875 14 13.230469 14 13.894531 L 14 15.105469 C 14 15.769531 14.597656 16.3125 15.332031 16.3125 L 16.667969 16.3125 C 17.402344 16.3125 18 15.769531 18 15.105469 L 18 13.894531 C 18 13.230469 17.402344 12.6875 16.667969 12.6875 Z M 16.667969 12.6875 "/>
<path style=" stroke:none;fill-rule:nonzero;fill:rgb(0%,0%,0%);fill-opacity:1;" d="M 21.332031 8.457031 L 17.332031 8.457031 C 16.597656 8.457031 16 9 16 9.667969 C 16 10.332031 16.597656 10.875 17.332031 10.875 L 20 10.875 L 20 13.292969 C 20 13.957031 20.597656 14.5 21.332031 14.5 C 22.070312 14.5 22.667969 13.957031 22.667969 13.292969 L 22.667969 9.667969 C 22.667969 9 22.070312 8.457031 21.332031 8.457031 Z M 21.332031 8.457031 "/>
<path style=" stroke:none;fill-rule:nonzero;fill:rgb(0%,0%,0%);fill-opacity:1;" d="M 14.667969 18.125 L 12 18.125 L 12 15.707031 C 12 15.042969 11.402344 14.5 10.667969 14.5 C 9.929688 14.5 9.332031 15.042969 9.332031 15.707031 L 9.332031 19.332031 C 9.332031 20 9.929688 20.542969 10.667969 20.542969 L 14.667969 20.542969 C 15.402344 20.542969 16 20 16 19.332031 C 16 18.667969 15.402344 18.125 14.667969 18.125 Z M 14.667969 18.125 "/>
<path style=" stroke:none;fill-rule:nonzero;fill:rgb(0%,0%,0%);fill-opacity:1;" d="M 21.332031 16.917969 C 20.597656 16.917969 20 17.457031 20 18.125 L 20 19.332031 C 20 20 20.597656 20.542969 21.332031 20.542969 C 22.070312 20.542969 22.667969 20 22.667969 19.332031 L 22.667969 18.125 C 22.667969 17.457031 22.070312 16.917969 21.332031 16.917969 Z M 21.332031 16.917969 "/>
<path style=" stroke:none;fill-rule:nonzero;fill:rgb(0%,0%,0%);fill-opacity:1;" d="M 10.667969 10.875 L 12 10.875 C 12.734375 10.875 13.332031 10.332031 13.332031 9.667969 C 13.332031 9 12.734375 8.457031 12 8.457031 L 10.667969 8.457031 C 9.929688 8.457031 9.332031 9 9.332031 9.667969 C 9.332031 10.332031 9.929688 10.875 10.667969 10.875 Z M 10.667969 10.875 "/>
</g>
</svg>
