<?xml version="1.0" encoding="UTF-8"?>
<svg xmlns="http://www.w3.org/2000/svg" xmlns:xlink="http://www.w3.org/1999/xlink" width="32pt" height="29pt" viewBox="0 0 32 29" version="1.1">
<g id="surface1">
<path style=" stroke:none;fill-rule:nonzero;fill:rgb(0%,0%,0%);fill-opacity:1;" d="M 30.667969 2.417969 C 31.402344 2.417969 32 1.875 32 1.207031 C 32 0.542969 31.402344 0 30.667969 0 L 1.332031 0 C 0.597656 0 0 0.542969 0 1.207031 C 0 1.875 0.597656 2.417969 1.332031 2.417969 L 2.667969 2.417969 L 2.667969 9.667969 L 1.332031 9.667969 C 0.597656 9.667969 0 10.207031 0 10.875 L 0 27.792969 C 0 28.457031 0.597656 29 1.332031 29 L 30.667969 29 C 31.402344 29 32 28.457031 32 27.792969 L 32 10.875 C 32 10.207031 31.402344 9.667969 30.667969 9.667969 L 29.332031 9.667969 L 29.332031 2.417969 Z M 29.332031 26.582031 L 2.667969 26.582031 L 2.667969 12.082031 L 29.332031 12.082031 Z M 9.847656 9.667969 C 11.171875 7.8125 13.460938 6.644531 16 6.644531 C 18.539062 6.644531 20.828125 7.8125 22.152344 9.667969 Z M 26.667969 9.667969 L 25.160156 9.667969 C 23.589844 6.382812 20.023438 4.230469 16 4.230469 C 11.976562 4.230469 8.410156 6.382812 6.839844 9.667969 L 5.332031 9.667969 L 5.332031 2.417969 L 26.667969 2.417969 Z M 26.667969 9.667969 "/>
<path style=" stroke:none;fill-rule:nonzero;fill:rgb(0%,0%,0%);fill-opacity:1;" d="M 25.332031 14.5 L 6.667969 14.5 C 5.929688 14.5 5.332031 15.042969 5.332031 15.707031 C 5.332031 16.375 5.929688 16.917969 6.667969 16.917969 L 25.332031 16.917969 C 26.070312 16.917969 26.667969 16.375 26.667969 15.707031 C 26.667969 15.042969 26.070312 14.5 25.332031 14.5 Z M 25.332031 14.5 "/>
<path style=" stroke:none;fill-rule:nonzero;fill:rgb(0%,0%,0%);fill-opacity:1;" d="M 9.332031 18.730469 L 6.667969 18.730469 C 5.929688 18.730469 5.332031 19.269531 5.332031 19.9375 C 5.332031 20.605469 5.929688 21.144531 6.667969 21.144531 L 9.332031 21.144531 C 10.070312 21.144531 10.667969 20.605469 10.667969 19.9375 C 10.667969 19.269531 10.070312 18.730469 9.332031 18.730469 Z M 9.332031 18.730469 "/>
<path style=" stroke:none;fill-rule:nonzero;fill:rgb(0%,0%,0%);fill-opacity:1;" d="M 25.332031 18.730469 L 14.667969 18.730469 C 13.929688 18.730469 13.332031 19.269531 13.332031 19.9375 C 13.332031 20.605469 13.929688 21.144531 14.667969 21.144531 L 25.332031 21.144531 C 26.070312 21.144531 26.667969 20.605469 26.667969 19.9375 C 26.667969 19.269531 26.070312 18.730469 25.332031 18.730469 Z M 25.332031 18.730469 "/>
</g>
</svg>
