<?xml version="1.0" encoding="UTF-8"?>
<svg xmlns="http://www.w3.org/2000/svg" xmlns:xlink="http://www.w3.org/1999/xlink" width="32pt" height="29pt" viewBox="0 0 32 29" version="1.1">
<g id="surface1">
<path style=" stroke:none;fill-rule:nonzero;fill:rgb(0%,0%,0%);fill-opacity:1;" d="M 26.667969 4.832031 C 27.402344 4.832031 28 4.292969 28 3.625 C 28 2.957031 27.402344 2.417969 26.667969 2.417969 L 25.332031 2.417969 L 25.332031 1.207031 C 25.332031 0.542969 24.734375 0 24 0 L 5.332031 0 C 4.597656 0 4 0.542969 4 1.207031 C 4 1.875 4.597656 2.417969 5.332031 2.417969 L 8 2.417969 L 8 26.582031 L 5.332031 26.582031 C 4.597656 26.582031 4 27.125 4 27.792969 C 4 28.457031 4.597656 29 5.332031 29 L 24 29 C 24.734375 29 25.332031 28.457031 25.332031 27.792969 L 25.332031 26.582031 L 26.667969 26.582031 C 27.402344 26.582031 28 26.042969 28 25.375 C 28 24.707031 27.402344 24.167969 26.667969 24.167969 L 25.332031 24.167969 L 25.332031 22.957031 L 26.667969 22.957031 C 27.402344 22.957031 28 22.417969 28 21.75 C 28 21.082031 27.402344 20.542969 26.667969 20.542969 L 25.332031 20.542969 L 25.332031 15.707031 L 26.667969 15.707031 C 27.402344 15.707031 28 15.167969 28 14.5 C 28 13.832031 27.402344 13.292969 26.667969 13.292969 L 25.332031 13.292969 L 25.332031 12.082031 L 26.667969 12.082031 C 27.402344 12.082031 28 11.542969 28 10.875 C 28 10.207031 27.402344 9.667969 26.667969 9.667969 L 25.332031 9.667969 L 25.332031 8.457031 L 26.667969 8.457031 C 27.402344 8.457031 28 7.917969 28 7.25 C 28 6.582031 27.402344 6.042969 26.667969 6.042969 L 25.332031 6.042969 L 25.332031 4.832031 Z M 22.667969 26.582031 L 20 26.582031 L 20 24.167969 C 20 23.5 19.402344 22.957031 18.667969 22.957031 C 17.929688 22.957031 17.332031 23.5 17.332031 24.167969 L 17.332031 26.582031 L 10.667969 26.582031 L 10.667969 2.417969 L 17.332031 2.417969 L 17.332031 19.332031 C 17.332031 20 17.929688 20.542969 18.667969 20.542969 C 19.402344 20.542969 20 20 20 19.332031 L 20 2.417969 L 22.667969 2.417969 Z M 22.667969 26.582031 "/>
</g>
</svg>
