<?xml version="1.0" encoding="UTF-8"?>
<svg xmlns="http://www.w3.org/2000/svg" xmlns:xlink="http://www.w3.org/1999/xlink" width="32pt" height="29pt" viewBox="0 0 32 29" version="1.1">
<g id="surface1">
<path style=" stroke:none;fill-rule:nonzero;fill:rgb(0%,0%,0%);fill-opacity:1;" d="M 30.667969 4.832031 L 5.332031 4.832031 L 5.332031 3.625 C 5.332031 2.957031 4.734375 2.417969 4 2.417969 L 1.332031 2.417969 C 0.597656 2.417969 0 2.957031 0 3.625 C 0 4.292969 0.597656 4.832031 1.332031 4.832031 L 2.667969 4.832031 L 2.667969 22.957031 C 2.667969 23.625 3.265625 24.167969 4 24.167969 L 5.332031 24.167969 L 5.332031 25.375 C 5.332031 26.042969 5.929688 26.582031 6.667969 26.582031 C 7.402344 26.582031 8 26.042969 8 25.375 L 8 24.167969 L 9.332031 24.167969 L 9.332031 25.375 C 9.332031 26.042969 9.929688 26.582031 10.667969 26.582031 C 11.402344 26.582031 12 26.042969 12 25.375 L 12 24.167969 C 12.734375 24.167969 13.332031 23.625 13.332031 22.957031 C 13.332031 22.292969 12.734375 21.75 12 21.75 L 5.332031 21.75 L 5.332031 7.25 L 29.332031 7.25 L 29.332031 21.75 L 17.332031 21.75 C 16.597656 21.75 16 22.292969 16 22.957031 C 16 23.625 16.597656 24.167969 17.332031 24.167969 L 18 24.167969 L 18 25.375 C 18 26.042969 18.597656 26.582031 19.332031 26.582031 C 20.070312 26.582031 20.667969 26.042969 20.667969 25.375 L 20.667969 24.167969 L 22 24.167969 L 22 25.375 C 22 26.042969 22.597656 26.582031 23.332031 26.582031 C 24.070312 26.582031 24.667969 26.042969 24.667969 25.375 L 24.667969 24.167969 L 26 24.167969 L 26 25.375 C 26 26.042969 26.597656 26.582031 27.332031 26.582031 C 28.070312 26.582031 28.667969 26.042969 28.667969 25.375 L 28.667969 24.167969 L 30.667969 24.167969 C 31.402344 24.167969 32 23.625 32 22.957031 L 32 6.042969 C 32 5.375 31.402344 4.832031 30.667969 4.832031 Z M 30.667969 4.832031 "/>
<path style=" stroke:none;fill-rule:nonzero;fill:rgb(0%,0%,0%);fill-opacity:1;" d="M 20 8.457031 C 19.265625 8.457031 18.667969 9 18.667969 9.667969 L 18.667969 10.875 L 17.332031 10.875 C 16.597656 10.875 16 11.417969 16 12.082031 L 16 13.292969 L 14.667969 13.292969 C 13.929688 13.292969 13.332031 13.832031 13.332031 14.5 C 13.332031 15.167969 13.929688 15.707031 14.667969 15.707031 L 16 15.707031 L 16 16.917969 C 16 17.582031 16.597656 18.125 17.332031 18.125 L 18.667969 18.125 L 18.667969 19.332031 C 18.667969 20 19.265625 20.542969 20 20.542969 C 20.734375 20.542969 21.332031 20 21.332031 19.332031 L 21.332031 18.125 L 22.667969 18.125 C 23.402344 18.125 24 17.582031 24 16.917969 L 24 15.707031 L 25.332031 15.707031 C 26.070312 15.707031 26.667969 15.167969 26.667969 14.5 C 26.667969 13.832031 26.070312 13.292969 25.332031 13.292969 L 24 13.292969 L 24 12.082031 C 24 11.417969 23.402344 10.875 22.667969 10.875 L 21.332031 10.875 L 21.332031 9.667969 C 21.332031 9 20.734375 8.457031 20 8.457031 Z M 21.332031 15.707031 L 18.667969 15.707031 L 18.667969 13.292969 L 21.332031 13.292969 Z M 21.332031 15.707031 "/>
<path style=" stroke:none;fill-rule:nonzero;fill:rgb(0%,0%,0%);fill-opacity:1;" d="M 10.667969 8.457031 L 8 8.457031 C 7.265625 8.457031 6.667969 9 6.667969 9.667969 C 6.667969 10.332031 7.265625 10.875 8 10.875 L 10.667969 10.875 C 11.402344 10.875 12 10.332031 12 9.667969 C 12 9 11.402344 8.457031 10.667969 8.457031 Z M 10.667969 8.457031 "/>
<path style=" stroke:none;fill-rule:nonzero;fill:rgb(0%,0%,0%);fill-opacity:1;" d="M 10.667969 12.082031 L 8 12.082031 C 7.265625 12.082031 6.667969 12.625 6.667969 13.292969 C 6.667969 13.957031 7.265625 14.5 8 14.5 L 10.667969 14.5 C 11.402344 14.5 12 13.957031 12 13.292969 C 12 12.625 11.402344 12.082031 10.667969 12.082031 Z M 10.667969 12.082031 "/>
</g>
</svg>
